HIERARCHY
ROOT Hips
{
	OFFSET 0.000000 0.000000 0.000000 
	CHANNELS 6 Xposition Yposition Zposition Zrotation Yrotation Xrotation
	JOINT LeftUpLeg
	{
		OFFSET 1.363060 -1.794630 0.839290 
		CHANNELS 3 Zrotation Yrotation Xrotation
		JOINT LeftLeg
		{
			OFFSET 2.448110 -6.726130 0.000000 
			CHANNELS 3 Zrotation Yrotation Xrotation
			JOINT LeftFoot
			{
				OFFSET 2.562200 -7.039590 0.000000 
				CHANNELS 3 Zrotation Yrotation Xrotation
				JOINT LeftToeBase
				{
					OFFSET 0.157640 -0.433110 2.322550 
					CHANNELS 3 Zrotation Yrotation Xrotation
					End Site
					{
						OFFSET 0.000000 0.000000 0.000000 
					}
				}
			}
		}
	}
	JOINT RightUpLeg
	{
		OFFSET -1.305520 -1.794630 0.839290 
		CHANNELS 3 Zrotation Yrotation Xrotation
		JOINT RightLeg
		{
			OFFSET -2.542530 -6.985550 0.000000 
			CHANNELS 3 Zrotation Yrotation Xrotation
			JOINT RightFoot
			{
				OFFSET -2.568260 -7.056230 0.000000 
				CHANNELS 3 Zrotation Yrotation Xrotation
				JOINT RightToeBase
				{
					OFFSET -0.164730 -0.452590 2.363150 
					CHANNELS 3 Zrotation Yrotation Xrotation
					End Site
					{
						OFFSET 0.000000 0.000000 0.000000 
					}
				}
			}
		}
	}
	JOINT Spine
	{
		OFFSET 0.028270 2.035590 -0.193380 
		CHANNELS 3 Zrotation Yrotation Xrotation
		JOINT Spine1
		{
			OFFSET 0.056720 2.048850 -0.042750 
			CHANNELS 3 Zrotation Yrotation Xrotation
			JOINT Neck1
			{
				OFFSET -0.054170 1.746240 0.172020 
				CHANNELS 3 Zrotation Yrotation Xrotation
				JOINT Head
				{
					OFFSET 0.104070 1.761360 -0.123970 
					CHANNELS 3 Zrotation Yrotation Xrotation
					End Site
					{
						OFFSET 0.000000 0.000000 0.000000 
					}
				}
			}
			JOINT LeftArm
			{
				OFFSET 3.362410 1.200890 -0.311210 
				CHANNELS 3 Zrotation Yrotation Xrotation
				JOINT LeftForeArm
				{
					OFFSET 4.983000 -0.000000 -0.000000 
					CHANNELS 3 Zrotation Yrotation Xrotation
					JOINT LeftHand
					{
						OFFSET 3.483560 -0.000000 -0.000000 
						CHANNELS 3 Zrotation Yrotation Xrotation
						JOINT LeftHandIndex1
						{
							OFFSET 0.715260 -0.000000 -0.000000 
							CHANNELS 3 Zrotation Yrotation Xrotation
							End Site
							{
								OFFSET 0.000000 0.000000 0.000000 
							}
						}
					}
				}
			}
			JOINT RightArm
			{
				OFFSET -3.136600 1.374050 -0.404650 
				CHANNELS 3 Zrotation Yrotation Xrotation
				JOINT RightForeArm
				{
					OFFSET -5.241900 -0.000000 -0.000000 
					CHANNELS 3 Zrotation Yrotation Xrotation
					JOINT RightHand
					{
						OFFSET -3.444170 -0.000000 -0.000000 
						CHANNELS 3 Zrotation Yrotation Xrotation
						JOINT RightHandIndex1
						{
							OFFSET -0.622530 -0.000000 -0.000000 
							CHANNELS 3 Zrotation Yrotation Xrotation
							End Site
							{
								OFFSET 0.000000 0.000000 0.000000 
							}
						}
					}
				}
			}
		}
	}
}
MOTION
Frames: 9
Frame Time: 0.041667
12.029961 15.854107 -12.446260 -15.586747 61.362326 -16.293471 -13.156978 -4.555901 -36.385412 11.237110 17.108490 62.474495 2.076067 -6.161445 -13.459748 0.059400 1.572100 4.324600 -3.405644 4.681582 -26.728603 -5.513548 -13.532414 42.459006 2.965740 -18.939239 -12.744276 -0.164900 -2.616500 7.212800 2.766969 1.638797 6.289994 -1.126449 0.801286 -1.734102 28.374466 -29.236284 -9.731623 9.365300 -14.770800 4.543700 -59.769575 6.625253 30.556499 55.174624 -51.072844 -33.067281 0.414487 -1.525757 -4.541952 -7.125000 0.000000 0.000000 19.609295 18.056503 -67.141718 -6.393587 10.391030 -0.681153 0.274242 -0.839878 31.546392 7.125000 0.000000 0.000000 
12.056435 15.842297 -12.339381 -14.850072 60.986282 -15.624251 -13.090841 -4.393325 -36.244622 11.344439 17.173284 62.818878 2.085394 -5.831128 -14.155695 0.012900 0.733100 2.014800 -3.428786 5.574572 -25.253297 -4.778102 -12.734344 39.372462 3.283090 -20.023482 -12.247637 -0.287100 -3.445600 9.521900 2.587722 1.670010 6.293853 -1.087131 0.805111 -1.442369 28.042474 -29.155737 -8.841400 9.200600 -14.662000 4.794400 -59.335317 7.067292 28.746859 53.226971 -50.403947 -31.172380 0.374534 -1.506205 -4.116749 -7.125000 0.000000 0.000000 19.584660 18.671482 -69.750827 -6.212082 10.118982 -0.652318 0.231026 -0.882705 34.312475 7.125000 0.000000 0.000000 
12.076807 15.840624 -12.228565 -14.511942 60.679934 -15.305702 -12.783674 -4.383119 -36.089733 11.471186 17.242461 63.201161 2.143231 -5.886812 -14.637870 0.005700 0.486400 1.336700 -3.511922 6.896867 -23.590751 -4.109717 -11.899698 36.297778 3.608440 -20.960912 -10.454530 -0.249000 -3.210900 8.866500 2.527954 1.809088 6.261590 -1.047056 0.864944 -1.254953 27.871296 -29.335709 -7.894920 9.085100 -14.669400 5.222400 -59.010573 7.277947 27.120512 51.111567 -49.606317 -29.156213 0.326784 -1.495088 -3.625546 -7.125000 0.000000 0.000000 19.594100 18.700901 -69.434257 -6.201372 10.105827 -0.652906 0.243821 -0.909681 34.054472 7.125000 0.000000 0.000000 
12.093341 15.843773 -12.120996 -14.242958 60.288872 -15.037399 -12.435468 -4.328644 -35.994455 11.600708 17.316230 63.592312 2.200149 -5.942294 -15.101299 0.002000 0.291800 0.801800 -3.891270 8.877977 -22.242611 -3.846586 -11.353666 34.302634 3.339266 -19.900467 -0.736760 -0.056400 1.533000 -4.216700 2.406728 2.055312 6.167967 -1.221593 0.988990 -1.157070 27.571083 -29.651927 -6.946216 8.897900 -14.745500 5.643400 -58.530102 7.892971 26.005995 49.714655 -49.052618 -27.806382 0.277326 -1.497230 -3.419200 -7.125000 0.000000 0.000000 19.809381 18.308918 -66.941731 -6.293524 10.243327 -0.668252 0.293342 -0.900292 31.721345 7.125000 0.000000 0.000000 
12.099935 15.818775 -12.011754 -13.791316 59.860636 -14.610757 -12.174021 -4.295694 -36.027577 11.772290 17.405197 64.125733 2.222083 -5.729030 -15.709825 0.000800 -0.185600 -0.509900 -4.465053 10.884158 -21.388353 -3.707353 -11.171570 33.717232 4.062086 -22.716028 -3.921849 -0.009600 0.633400 -1.740600 2.075024 2.169801 5.915579 -1.639850 1.055572 -1.350547 27.235347 -29.729308 -6.135004 8.753700 -14.745500 5.850500 -57.910377 9.310572 24.865070 49.189788 -48.872970 -27.234775 0.242593 -1.504916 -3.510908 -7.125000 0.000000 0.000000 20.316412 18.383084 -66.147947 -6.309956 10.269722 -0.669484 0.277546 -0.880560 31.313013 7.125000 0.000000 0.000000 
12.090881 15.785708 -11.915701 -13.902504 59.459916 -14.552574 -11.647989 -4.558753 -36.192966 11.938069 17.488878 64.666425 2.145174 -4.999517 -16.306614 0.023300 -0.986000 -2.710300 -3.749111 10.025451 -21.500710 -3.881326 -11.432043 34.643419 4.350027 -23.893480 -5.762729 -0.064100 1.633400 -4.493700 1.748214 2.142730 5.574429 -2.246933 1.055541 -1.715065 27.169531 -29.547840 -5.656835 8.776900 -14.653300 5.901400 -57.336865 10.391137 23.171522 47.940589 -48.376883 -26.064494 0.205758 -1.486752 -3.378922 -7.125000 0.000000 0.000000 20.778519 18.881434 -67.432669 -6.207908 10.118474 -0.651787 0.217493 -0.882408 32.577177 7.125000 0.000000 0.000000 
12.082712 15.758053 -11.835196 -13.819058 59.009317 -14.552801 -11.289802 -4.975451 -36.088632 12.084953 17.555986 65.174809 1.997722 -3.903989 -16.935178 0.087900 -1.912300 -5.263300 -3.297218 9.470352 -22.495508 -4.208679 -11.816159 36.130845 3.609045 -20.849527 -4.157085 -0.250800 3.222500 -8.898900 1.798827 2.108643 5.466464 -2.245417 1.038895 -1.953628 27.259063 -29.305728 -5.451587 8.925500 -14.540600 5.970900 -57.665932 10.866406 20.953193 45.830704 -47.407555 -24.152919 0.137916 -1.478572 -3.106516 -7.125000 0.000000 0.000000 20.471442 19.564720 -68.209434 -6.117755 9.971760 -0.636462 0.239099 -0.905823 33.012292 7.125000 0.000000 0.000000 
12.082220 15.746341 -11.764337 -13.246680 58.372619 -14.387850 -11.213594 -5.384443 -35.537726 12.182126 17.596597 65.525367 1.886203 -3.002175 -17.567017 0.099700 -2.036500 -5.606600 -3.160569 9.030955 -23.423323 -4.545446 -12.230663 37.740930 2.900086 -17.627179 -3.702659 -0.243600 3.176400 -8.770300 1.932585 2.122880 5.572321 -1.972763 1.045226 -2.057162 27.304035 -29.059758 -5.377498 9.041100 -14.420800 6.009400 -58.405160 11.648003 18.806018 44.391407 -46.691759 -22.802678 0.057764 -1.514216 -3.284842 -7.125000 0.000000 0.000000 19.731276 20.619878 -70.501564 -5.929316 9.678568 -0.606232 0.231803 -0.950450 34.826393 7.125000 0.000000 0.000000 
12.086551 15.750376 -11.694462 -12.879312 57.496612 -14.432395 -11.023388 -5.593913 -34.819130 12.220575 17.633112 65.714863 1.752179 -1.921971 -18.327742 0.116200 -2.198000 -6.053100 -2.757165 8.357976 -24.131842 -4.781577 -12.472188 38.598662 3.036993 -18.528325 -2.200386 -0.605500 4.980700 -13.853600 1.653832 2.353867 5.815813 -2.601597 1.179978 -1.867382 27.534340 -29.055126 -5.503110 9.072800 -14.406900 6.010900 -58.320687 11.726115 16.746741 42.683107 -45.808104 -21.283241 -0.017088 -1.530294 -3.254519 -7.125000 0.000000 0.000000 19.453544 21.531742 -75.222033 -5.747453 9.419948 -0.580609 0.114808 -0.970331 38.536553 7.125000 0.000000 0.000000 
